#!OML:ASF I:\Actors\actors\Patient Classification 2\Patient 1\Session 1\actor1.ASF
:FULLY-SPECIFIED
:DEGREES
814
root -0.318616 18.5461 4.20724 15.6252 5.49148 -1.6686
lowerback 28.0826 -0.102581 0.902583
upperback 3.07285 0.248352 0.691358
thorax -12.1553 0.0946347 0.172919
lowerneck -15.9683 -4.26036 -4.32467
upperneck -3.49695 -5.10687 8.62702
head 2.05518 -2.25903 3.29564
rclavicle 3.55017e-015 1.59525e-014
rhumerus -38.6482 11.3301 -90.8294
rradius 112.075
rwrist 20.5137
rhand -1.83051 -48.2877
rfingers 7.12502
rthumb 23.8359 -76.8289
lclavicle 3.55017e-015 1.59525e-014
lhumerus -38.3826 -26.348 101.377
lradius 104.089
lwrist -16.9016
lhand 26.531 -11.3403
lfingers 7.12502
lthumb 50.5629 9.58183
rfemur -22.2304 0.331222 13.3015
rtibia 19.033
rfoot -20.7657 -11.3914
rtoes -13.6663
lfemur -35.622 -0.24349 -12.7553
ltibia 34.9713
lfoot -16.0784 5.33591
ltoes -57.7479
815
root -0.319323 18.5526 4.23977 14.9669 5.55751 -1.69453
lowerback 27.5178 -0.175322 0.930675
upperback 3.00218 0.150407 0.6523
thorax -11.941 0.0480368 0.147809
lowerneck -16.0775 -4.26545 -4.36569
upperneck -3.27242 -5.11163 8.47367
head 2.14676 -2.25905 3.24902
rclavicle -8.58501e-015 5.86415e-015
rhumerus -38.8317 11.3199 -90.7849
rradius 111.086
rwrist 20.3699
rhand -2.07109 -48.055
rfingers 7.12502
rthumb 23.6052 -76.6261
lclavicle -8.58501e-015 5.86415e-015
lhumerus -38.7492 -26.124 101.112
lradius 103.344
lwrist -16.9225
lhand 26.2647 -11.4946
lfingers 7.12502
lthumb 50.3196 9.55867
rfemur -21.0688 0.344717 13.3738
rtibia 18.45
rfoot -20.6859 -11.4289
rtoes -13.7138
lfemur -34.6922 -0.341958 -12.7366
ltibia 34.8297
lfoot -16.2622 5.32668
ltoes -57.7799
816
root -0.322505 18.5579 4.27686 14.2321 5.61407 -1.81691
lowerback 27.0058 -0.234579 0.996099
upperback 2.89701 0.0870042 0.657298
thorax -11.7931 0.0161567 0.13799
lowerneck -16.2787 -4.2631 -4.43692
upperneck -2.88702 -5.10687 8.3186
head 2.31108 -2.25004 3.20837
rclavicle 4.72114e-016 -2.65874e-015
rhumerus -38.9962 11.3719 -90.7165
rradius 109.848
rwrist 20.2094
rhand -2.43327 -48.0567
rfingers 7.12502
rthumb 23.2578 -76.6721
lclavicle 4.72114e-016 -2.65874e-015
lhumerus -39.138 -25.9515 100.887
lradius 102.468
lwrist -17.0807
lhand 25.9755 -11.6205
lfingers 7.12502
lthumb 50.0552 9.57322
rfemur -19.7828 0.437588 13.5541
rtibia 17.7789
rfoot -20.6085 -11.5086
rtoes -13.6209
lfemur -33.663 -0.397695 -12.605
ltibia 34.6616
lfoot -16.3957 5.23422
ltoes -57.8358
817
root -0.326412 18.5634 4.31969 13.4641 5.72263 -1.8997
lowerback 26.4645 -0.307362 1.01132
upperback 2.77483 -0.0102076 0.655769
thorax -11.648 -0.0290863 0.161035
lowerneck -16.76 -4.20529 -4.27634
upperneck -2.06532 -5.07212 8.30132
head 2.3702 -2.20003 2.87752
rclavicle -1.23743e-014 -9.29318e-015
rhumerus -39.1602 11.4745 -90.6595
rradius 108.466
rwrist 20.1243
rhand -2.62377 -48.0819
rfingers 7.12502
rthumb 23.075 -76.7203
lclavicle -1.23743e-014 -9.29318e-015
lhumerus -39.4864 -25.8671 100.621
lradius 101.518
lwrist -17.445
lhand 25.8741 -11.659
lfingers 7.12502
lthumb 49.9625 9.58346
rfemur -18.3771 0.494566 13.7052
rtibia 17.012
rfoot -20.5275 -11.626
rtoes -13.5951
lfemur -32.5721 -0.473409 -12.5127
ltibia 34.4635
lfoot -16.4981 5.09392
ltoes -57.934
818
root -0.331182 18.5693 4.36761 12.6315 5.81754 -1.93732
lowerback 25.9752 -0.377085 0.943507
upperback 2.62979 -0.127696 0.643705
thorax -11.5551 -0.080344 0.226431
lowerneck -17.1408 -4.10427 -4.13576
upperneck -1.32204 -4.98671 8.07646
head 2.63588 -2.1443 2.78181
rclavicle -5.36719e-015 1.59028e-014
rhumerus -39.3552 11.6195 -90.611
rradius 107.039
rwrist 20.1362
rhand -2.5496 -47.9446
rfingers 7.12502
rthumb 23.1462 -76.5741
lclavicle -5.36719e-015 1.59028e-014
lhumerus -39.8373 -25.7843 100.368
lradius 100.533
lwrist -18.1429
lhand 26.1228 -11.8168
lfingers 7.12502
lthumb 50.1899 9.30561
rfemur -16.8223 0.616348 13.7988
rtibia 16.1341
rfoot -20.4514 -11.7855
rtoes -13.3255
lfemur -31.3703 -0.564509 -12.4705
ltibia 34.2317
lfoot -16.6035 5.00545
ltoes -58.0345
819
root -0.335388 18.5771 4.4229 11.744 5.84936 -2.03335
lowerback 25.4725 -0.41937 0.900543
upperback 2.48411 -0.200527 0.649777
thorax -11.4539 -0.112063 0.281206
lowerneck -17.5582 -3.99383 -3.99559
upperneck -0.433161 -4.89554 7.85359
head 2.95254 -2.08312 2.68661
rclavicle -1.16786e-014 -4.96962e-015
rhumerus -39.6203 11.7197 -90.5457
rradius 105.64
rwrist 20.2489
rhand -2.44916 -47.7538
rfingers 7.12502
rthumb 23.2425 -76.3712
lclavicle -1.16786e-014 -4.96962e-015
lhumerus -40.1898 -25.7023 100.177
lradius 99.5423
lwrist -19.0347
lhand 26.6386 -11.9289
lfingers 7.12502
lthumb 50.6612 8.93964
rfemur -15.1551 0.80943 13.954
rtibia 15.1552
rfoot -20.3187 -11.9944
rtoes -13.0681
lfemur -30.0449 -0.670773 -12.3603
ltibia 33.9559
lfoot -16.7147 4.99139
ltoes -58.0897
820
root -0.340331 18.5872 4.48477 10.922 5.82282 -2.11241
lowerback 24.8304 -0.406923 0.855885
upperback 2.31722 -0.208201 0.626334
thorax -11.3002 -0.114783 0.279995
lowerneck -17.9202 -3.94751 -4.04619
upperneck 0.435966 -4.86937 7.95135
head 3.276 -2.04143 2.71738
rclavicle 5.31749e-015 1.63003e-014
rhumerus -39.9675 11.6652 -90.4825
rradius 104.23
rwrist 20.399
rhand -2.49571 -47.5057
rfingers 7.12502
rthumb 23.1979 -76.1287
lclavicle 5.31749e-015 1.63003e-014
lhumerus -40.5829 -25.7846 100.03
lradius 98.6007
lwrist -19.7082
lhand 27.2754 -11.7697
lfingers 7.12502
lthumb 51.2416 8.77588
rfemur -13.4825 1.04453 14.0949
rtibia 14.0396
rfoot -20.1484 -12.3173
rtoes -13.3433
lfemur -28.7178 -0.800956 -12.2604
ltibia 33.6317
lfoot -16.8887 5.04669
ltoes -58.1048
